<svg xmlns="http://www.w3.org/2000/svg" version="1.1" viewBox="-5.0 -10.0 110.0 135.0">
 <g>
  <path d="m76.227 41.379h1.168c0.41016 0 0.72656-0.33203 0.72656-0.72656 0-0.41016-0.33203-0.72656-0.72656-0.72656h-1.168c-0.41016 0-0.72656 0.33203-0.72656 0.72656-0.015625 0.39453 0.31641 0.72656 0.72656 0.72656z"/>
  <path d="m22.348 88.348h4.7266c0.41016 0 0.72656-0.33203 0.72656-0.72656 0-0.39453-0.33203-0.72656-0.72656-0.72656h-4.7266c-0.41016 0-0.72656 0.33203-0.72656 0.72656 0 0.39453 0.33203 0.72656 0.72656 0.72656z"/>
  <path d="m22.848 74.305h1.168c0.41016 0 0.72656-0.33203 0.72656-0.72656s-0.33203-0.72656-0.72656-0.72656h-1.168c-0.41016 0-0.72656 0.33203-0.72656 0.72656 0 0.39062 0.31641 0.72656 0.72656 0.72656z"/>
  <path d="m97 96.258h-24.668c-0.27344-1.6836-1.4531-3.0742-3.1211-3.5742-0.074219-1.3164-0.9375-2.4102-2.1367-2.8164 0.30469-0.9375 0.51562-2.2266-0.48438-2.7109-0.74219-0.36328-1.832-0.41016-3.1211 1.0469-1.168-2.5-3.6836-4.1367-6.5469-4.1367-3.9844 0-7.2266 3.2422-7.2266 7.2266v0.19531c-0.84766-0.12109-1.7266 0.12109-2.3945 0.63672-1.3945-1.6211-3.4375-2.5625-5.6055-2.5625-0.28906 0-0.57422 0.015625-0.86328 0.0625l-5.1211-18.926c-0.089844-0.31641-0.37891-0.54688-0.71094-0.54688s-0.62109 0.22656-0.71094 0.54688l-3.3164 12.273-5.4688-27.332c4.2891-0.65234 8.668-0.48438 13.195 0.5 0.015625 0 0.015625 0.015625 0.03125 0.015625h0.0625c2.1953 0.48438 4.4258 1.168 6.6953 2.0312h0.015625c0.9375 0.36328 1.8945 0.75781 2.8477 1.1836 4.6367 2.0742 9.0898 3.7891 13.332 5.1836h-12.832c-0.41016 0-0.72656 0.33203-0.72656 0.72656s0.33203 0.72656 0.72656 0.72656h17.695c6.5469 1.8047 12.516 2.7109 17.758 2.7109 4.6523 0 8.7422-0.72656 12.137-2.1836 0.37891-0.16797 0.54688-0.58984 0.37891-0.96875-0.16797-0.37891-0.58984-0.54688-0.96875-0.37891-9.668 4.1523-25.289 2-44.152-5.9844 3.9375-0.30469 10.938-1 16.211-2.2734 0.68359-0.16797 1.3633-0.31641 2.0312-0.45313h0.015625c9.9531-2.0312 18.621-0.9375 25.805 3.2578 0.12109 0.0625 0.24219 0.10547 0.36328 0.10547 0.25781 0 0.5-0.13672 0.63672-0.36328 0.19531-0.34766 0.089843-0.80469-0.25781-1-0.71094-0.41016-1.4258-0.78906-2.168-1.1367l-5.2891-19.562c-0.089844-0.31641-0.37891-0.54688-0.71094-0.54688-0.33203 0-0.62109 0.22656-0.71094 0.54688l-3.5898 13.305-6.1562-25.961c-0.074218-0.33203-0.37891-0.5625-0.71094-0.5625s-0.63672 0.22656-0.71094 0.5625l-6.6953 28.105-2.5156-8.3945c-0.089844-0.31641-0.37891-0.53125-0.69531-0.53125-0.31641 0-0.60547 0.21094-0.69531 0.53125l-3.5 11.711c-6.1055 0.95312-12.469 1.3477-13.574 1.4258-0.81641-0.36328-1.6211-0.69531-2.4375-1.0156l-3.5742-13.258c-0.089843-0.31641-0.37891-0.54687-0.71094-0.54687-0.33203 0-0.62109 0.22656-0.71094 0.54687l-2.9531 10.91c-4.4844-0.87891-8.8633-1-13.168-0.33203l-0.71094-3.5625c-0.074219-0.34766-0.36328-0.58984-0.72656-0.58984-0.34766 0-0.65234 0.24219-0.72656 0.58984l-0.83203 4.1523c-6.4531 1.5625-12.727 4.8945-18.863 10.047-0.31641 0.25781-0.34766 0.72656-0.089844 1.0312 0.25781 0.30469 0.72656 0.34766 1.0312 0.089844 5.8164-4.8789 11.652-8.0898 17.621-9.668l-5.7891 28.953-2.2734-7.5898c-0.089844-0.31641-0.37891-0.53125-0.69531-0.53125s-0.60547 0.21094-0.69531 0.53125l-5.5391 18.531h-3.9375c-0.41016 0-0.72656 0.33203-0.72656 0.72656s0.33203 0.72656 0.72656 0.72656h93.984c0.41016 0 0.72656-0.33203 0.72656-0.72656s-0.31641-0.72656-0.71094-0.72656zm-8.6367-55.469 4.2734 15.773c-2.4531-1.0156-5.0469-1.7266-7.7734-2.1211l-0.089843-0.36328zm-11.195-12.336 4 16.805h-2.6953c-0.41016 0-0.72656 0.33203-0.72656 0.72656 0 0.41016 0.33203 0.72656 0.72656 0.72656h3.0469l1.7891 7.5v0.015624c-3.8945-0.41016-8.0312-0.19531-12.426 0.58984zm-10.621 19.152 2.2891 7.6523c-0.42578 0.089844-0.83203 0.18359-1.2578 0.27344-1.1367 0.27344-2.3633 0.53125-3.6211 0.74219zm-24.5-0.91016 2.6055 9.6211c-1.6211-0.5625-3.2266-1.0312-4.8164-1.4102zm4.5273 46.926c0.13672 0.19531 0.36328 0.31641 0.60547 0.31641h0.089843c0.24219 0 0.46875-0.12109 0.60547-0.31641 0.48438-0.69531 1.5625-0.89453 2.2578-0.41016 0.24219 0.16797 0.57422 0.16797 0.83203 0 0.24219-0.16797 0.36328-0.46875 0.30469-0.77344-0.074219-0.34766-0.12109-0.72656-0.12109-1.1367 0-3.1836 2.5898-5.7734 5.7734-5.7734 2.6836 0 5 1.8047 5.6055 4.3945 0.074218 0.28906 0.30469 0.5 0.58984 0.5625 0.28906 0.046875 0.58984-0.089844 0.74219-0.33203 0.28906-0.46875 1.2734-1.9258 2-1.7109 0.015625 0.15234 0 0.63672-0.45312 1.7109-0.089844 0.22656-0.074219 0.48438 0.0625 0.68359 0.13672 0.19531 0.36328 0.33203 0.60547 0.33203 0.92578 0 1.668 0.75781 1.668 1.6836v0.41016c0 0.36328 0.27344 0.66797 0.62109 0.72656 0.13672 0.015625 0.25781 0.0625 0.37891 0.089844 1.0469 0.31641 1.8164 1.1523 2.0625 2.1836l-35.031-0.003907c0.0625-0.5 0.18359-1 0.36328-1.4688 0.91016-2.2734 3.0742-3.7422 5.5312-3.7422 1.9688 0 3.8008 0.95312 4.9062 2.5742zm-11.59-19.91 4.3789 16.227c-2.0625 0.66797-3.7578 2.2109-4.5898 4.3047-0.25781 0.65234-0.42578 1.332-0.48438 2.0156h-5.4102zm-11.195-19.105 4.7109 23.574h-3.4102c-0.41016 0-0.72656 0.33203-0.72656 0.72656 0 0.41016 0.33203 0.72656 0.72656 0.72656h3.7109l1.3047 6.5-2.7266 10.105-11.926 0.003907zm-10.621 25.926 2.3477 7.8789-1.5742 7.8477h-5.4727z"/>
  <path d="m76.152 15.047h17.168c2.3477 0 4.2734-1.8164 4.4102-4.1523 0.03125-0.51562 0.015625-1.0469-0.0625-1.5625-0.46875-3.5625-3.4102-6.5-6.9688-6.9844-3.5469-0.46875-6.9531 1.3945-8.4688 4.5625-2.9531 0.24219-5.4844 2.332-6.2578 5.2422l-0.51562 1.9844c-0.0625 0.22656-0.015625 0.45312 0.12109 0.63672 0.11719 0.16406 0.34766 0.27344 0.57422 0.27344zm1.2266-2.5312c0.63672-2.3789 2.7734-4.0742 5.2266-4.1523 1.1055 0.03125 2.168 0.39453 3.0625 1.0312 0.13672 0.089844 0.27344 0.13672 0.42578 0.13672 0.22656 0 0.45312-0.10547 0.58984-0.30469 0.24219-0.33203 0.16797-0.78906-0.16797-1.0312-0.81641-0.58984-1.7422-0.96875-2.7109-1.168 1.3477-2.2891 3.9688-3.6055 6.6836-3.2422 2.9258 0.39453 5.3164 2.8047 5.7109 5.7266 0.0625 0.42578 0.074219 0.84766 0.046875 1.2734v0.015625c-0.074219 1.5625-1.3789 2.7734-2.9375 2.7734h-16.211z"/>
  <path d="m3 26.484h21.316c2.8164 0 5.1523-2.1953 5.2891-5 0.046875-0.63672 0.015625-1.2734-0.074219-1.9102-0.57422-4.3477-4.1523-7.9375-8.5-8.5312-4.3477-0.57422-8.5625 1.7266-10.379 5.668-3.6367 0.25781-6.7734 2.8164-7.7266 6.3789l-0.65234 2.4688c-0.0625 0.22656-0.015626 0.45312 0.12109 0.63672 0.16797 0.18359 0.37891 0.28906 0.60547 0.28906zm1.3633-3c0.80469-3.0312 3.5156-5.1836 6.6367-5.3047 1.4258 0.046874 2.7891 0.5 3.9531 1.332 0.13672 0.089843 0.27344 0.13672 0.42578 0.13672 0.22656 0 0.45312-0.10547 0.58984-0.30469 0.24219-0.33203 0.16797-0.78906-0.16797-1.0312-1.0625-0.75781-2.2734-1.2578-3.5312-1.4844 1.6836-3.0312 5.0742-4.7891 8.5898-4.3164 3.7109 0.5 6.7578 3.5469 7.2422 7.2578 0.074219 0.53125 0.089844 1.0898 0.0625 1.6211v0.015625c-0.10547 2.0312-1.7891 3.6055-3.832 3.6055l-20.379 0.003906z"/>
  <path d="m56.969 18.211c-0.28906-0.28906-0.75781-0.28906-1.0469 0-0.28906 0.28906-0.28906 0.75781 0 1.0469l1.1055 1.1055c0.13672 0.13672 0.33203 0.21094 0.51562 0.21094 0.18359 0 0.37891-0.074219 0.51562-0.21094 0.28906-0.28906 0.28906-0.75781 0-1.0469z"/>
  <path d="m58.895 13.59h1.5625c0.41016 0 0.72656-0.33203 0.72656-0.72656s-0.33594-0.74219-0.74609-0.74219h-1.5625c-0.41016 0-0.72656 0.33203-0.72656 0.72656 0.003906 0.39453 0.33594 0.74219 0.74609 0.74219z"/>
  <path d="m56.453 7.7266c0.18359 0 0.37891-0.074218 0.51562-0.21094l1.1055-1.1055c0.28906-0.28906 0.28906-0.75781 0-1.0469-0.28906-0.28906-0.75781-0.28906-1.0469 0l-1.1055 1.1055c-0.28906 0.28906-0.28906 0.75781 0 1.0469 0.15234 0.13672 0.35156 0.21094 0.53125 0.21094z"/>
  <path d="m50.316 19.09h0.13672 0.13672c3.4375 0 6.2422-2.8047 6.2422-6.2422s-2.8047-6.2266-6.2422-6.2266h-0.13672-0.13672c-3.4375 0-6.2422 2.8047-6.2422 6.2266 0 3.457 2.8047 6.2422 6.2422 6.2422zm0-11h0.074219 0.19531c2.6367 0 4.7734 2.1367 4.7734 4.7578 0 2.6367-2.1367 4.7734-4.832 4.7734h-0.13672-0.074219c-2.6367 0-4.7734-2.1367-4.7734-4.7734 0.003906-2.6211 2.1406-4.7578 4.7734-4.7578z"/>
  <path d="m50.453 5.3047c0.41016 0 0.72656-0.33203 0.72656-0.72656l0.003906-1.5781c0-0.41016-0.33203-0.72656-0.72656-0.72656-0.41016 0-0.72656 0.33203-0.72656 0.72656v1.5625c-0.019531 0.40625 0.31641 0.74219 0.72266 0.74219z"/>
  <path d="m49.711 21.152v1.5625c0 0.41016 0.33203 0.72656 0.72656 0.72656 0.41016 0 0.72656-0.33203 0.72656-0.72656v-1.5625c0-0.41016-0.33203-0.72656-0.72656-0.72656-0.39062 0-0.72656 0.33203-0.72656 0.72656z"/>
  <path d="m43.926 18.211-1.1055 1.1055c-0.28906 0.28906-0.28906 0.75781 0 1.0469 0.13672 0.13672 0.33203 0.21094 0.51563 0.21094 0.18359 0 0.37891-0.074219 0.51562-0.21094l1.1055-1.1055c0.28906-0.28906 0.28906-0.75781 0-1.0469-0.27344-0.28516-0.74609-0.28516-1.0312 0z"/>
  <path d="m40.453 13.59h1.5625c0.41016 0 0.72656-0.33203 0.72656-0.72656s-0.31641-0.74219-0.72656-0.74219h-1.5625c-0.41016 0-0.72656 0.33203-0.72656 0.72656 0 0.39453 0.32031 0.74219 0.72656 0.74219z"/>
  <path d="m43.926 7.5156c0.13672 0.13672 0.33203 0.21094 0.51562 0.21094s0.37891-0.074218 0.51562-0.21094c0.28906-0.28906 0.28906-0.75781 0-1.0469l-1.1055-1.1055c-0.28906-0.28906-0.75781-0.28906-1.0469 0-0.28906 0.28906-0.28906 0.75781 0 1.0469z"/>
  <path d="m46.652 65.289c0-0.41016-0.33203-0.72656-0.72656-0.72656h-1.3633c-0.41016 0-0.72656 0.33203-0.72656 0.72656 0 0.39453 0.33203 0.72656 0.72656 0.72656h1.3633c0.39062 0 0.72656-0.32031 0.72656-0.72656z"/>
  <path d="m65.047 73.453c-0.41016 0-0.72656 0.33203-0.72656 0.72656 0 0.41016 0.33203 0.72656 0.72656 0.72656h1.3633c0.41016 0 0.72656-0.33203 0.72656-0.72656 0-0.41016-0.33203-0.72656-0.72656-0.72656z"/>
  <path d="m82.727 74.184c0-0.41016-0.33203-0.72656-0.72656-0.72656h-12.652c-0.41016 0-0.72656 0.33203-0.72656 0.72656 0 0.41016 0.33203 0.72656 0.72656 0.72656h12.652c0.39453 0.015625 0.72656-0.32031 0.72656-0.72656z"/>
  <path d="m8.8477 70c0.41016 0 0.72656-0.33203 0.72656-0.72656 0-0.39453-0.33203-0.72656-0.72656-0.72656h-1.3633c-0.41016 0-0.72656 0.33203-0.72656 0.72656 0 0.39453 0.33203 0.72656 0.72656 0.72656z"/>
  <path d="m15.695 70c0.41016 0 0.72656-0.33203 0.72656-0.72656 0-0.39453-0.33203-0.72656-0.72656-0.72656h-3.9062c-0.41016 0-0.72656 0.33203-0.72656 0.72656 0 0.39453 0.33203 0.72656 0.72656 0.72656z"/>
  <path d="m45.91 79.652h1.3633c0.41016 0 0.72656-0.33203 0.72656-0.72656 0-0.41016-0.33203-0.72656-0.72656-0.72656h-1.3633c-0.41016 0-0.72656 0.33203-0.72656 0.72656 0 0.39062 0.31641 0.72656 0.72656 0.72656z"/>
  <path d="m50.211 78.184c-0.41016 0-0.72656 0.33203-0.72656 0.72656 0 0.41016 0.33203 0.72656 0.72656 0.72656h12.652c0.41016 0 0.72656-0.33203 0.72656-0.72656 0-0.41016-0.33203-0.72656-0.72656-0.72656z"/>
  <path d="m75.727 85.453c-0.41016 0-0.72656 0.33203-0.72656 0.72656 0 0.41016 0.33203 0.72656 0.72656 0.72656h1.3633c0.41016 0 0.72656-0.33203 0.72656-0.72656 0-0.41016-0.33203-0.72656-0.72656-0.72656z"/>
  <path d="m80.047 86.926h6.8477c0.41016 0 0.72656-0.33203 0.72656-0.72656 0-0.41016-0.33203-0.72656-0.72656-0.72656h-6.8477c-0.41016 0-0.72656 0.33203-0.72656 0.72656-0.015624 0.39062 0.31641 0.72656 0.72656 0.72656z"/>
 </g>
<text x="0.0" y="117.5" font-size="5.0" font-weight="bold" font-family="Arbeit Regular, Helvetica, Arial-Unicode, Arial, Sans-serif" fill="#000000">Created by Candy Design</text><text x="0.0" y="122.5" font-size="5.0" font-weight="bold" font-family="Arbeit Regular, Helvetica, Arial-Unicode, Arial, Sans-serif" fill="#000000">from Noun Project</text></svg>