<svg xmlns="http://www.w3.org/2000/svg" version="1.1" viewBox="-5.0 -10.0 110.0 135.0">
 <path d="m99.238 56.109c-0.80078-2.3789-3.6094-4.4492-9.1094-3.1094l-19.648 4.7812c-0.78125-0.80859-1.8711-1.5-3.3281-1.9297l-6.9609-2.0391v-12.562l8.1406 0.058594h0.089844c5.9688 0 11.48-4.8203 12.309-10.781l1.0781-7.6797c0.12109-0.92188-0.14062-1.8086-0.73828-2.5117-0.011718-0.011719-0.011718-0.011719-0.019531-0.019532-0.60938-0.69922-1.4609-1.0781-2.3789-1.0898l-7.8281-0.058593h-0.078125c-5.6211 0-10.828 4.2617-12.129 9.7305-1.2891-5.4688-6.5117-9.7305-12.129-9.7305h-0.078124l-7.8281 0.058593c-0.92187 0.011719-1.7617 0.39844-2.3789 1.0898-0.011718 0.011719-0.011718 0.011719-0.019531 0.019532-0.60156 0.69922-0.85938 1.6016-0.73828 2.5195l1.0703 7.6719c0.82812 5.9609 6.3398 10.781 12.309 10.781h0.089844l8.1406-0.058594-0.015625 11.648-14.66-4.3086c-4.6289-1.3594-8.9805-1.4883-13.68-0.42188l-6.4414 1.4688v-1.7617c0-1.9297-1.5703-3.5-3.5-3.5l-14.777 0.003906c-1.9297 0-3.5 1.5703-3.5 3.5v28.41c0 1.9297 1.5703 3.5 3.5 3.5h14.809c1.9297 0 3.5-1.5703 3.5-3.5v-2.6992l21.02 6.1016c2.6094 0.76172 5.1602 1.1406 7.6914 1.1406 3.5898 0 7.1211-0.76953 10.66-2.3008l33.102-14.34c3.5078-1.5195 5.4688-5.0703 4.457-8.082zm-28.477-33.848h0.058593l7.8203 0.058593c0.039063 0 0.050781 0 0.078125 0.039063 0.03125 0.03125 0.03125 0.039063 0.019531 0.078125l-1.0703 7.6719c-0.60938 4.4102-4.8398 8.1211-9.25 8.1211h-0.070313l-5.6016-0.039063 3.4219-2.9609 5.7617 0.10156h0.03125c0.83984 0 1.5312-0.67188 1.5391-1.5195 0.011719-0.85156-0.67188-1.5586-1.5195-1.5703l-2.3008-0.039063 7.0898-6.1211c0.64844-0.55859 0.71875-1.5312 0.16016-2.1797-0.55859-0.64844-1.5312-0.71875-2.1797-0.16016l-3.7188 3.2109 0.30078-2.2812c0.10938-0.85156-0.48828-1.6211-1.3281-1.7305-0.85156-0.10938-1.6211 0.48828-1.7305 1.3281l-0.75 5.7188-6.7891 5.8594 0.76172-5.4609c0.61328-4.4258 4.8555-8.125 9.2656-8.125zm-21.84 15.957h-0.070313c-4.4102 0-8.6406-3.6992-9.25-8.1211l-1.0703-7.6602c-0.011719-0.050781-0.011719-0.050781 0.019531-0.078125 0.03125-0.039063 0.039063-0.039063 0.078125-0.039063l7.8281-0.058593h0.058594c4.4102 0 8.6484 3.6992 9.2617 8.1211l0.76172 5.4609-3.7891-3.2695c-0.039062-0.039063-0.089844-0.089844-0.14062-0.12109l-2.8516-2.4609-0.75781-5.7305c-0.10938-0.85156-0.89062-1.4414-1.7305-1.3281-0.85156 0.10938-1.4414 0.89062-1.3281 1.7305l0.30078 2.2812-3.7188-3.2109c-0.64844-0.55859-1.6211-0.48828-2.1797 0.16016-0.55859 0.64844-0.48828 1.6211 0.16016 2.1797l7.0898 6.1211-2.3008 0.039063c-0.85156 0.011719-1.5312 0.71875-1.5195 1.5703 0.011718 0.83984 0.69922 1.5195 1.5391 1.5195h0.03125l5.7617-0.10156 3.4219 2.9609zm-30.113 38.48h-14.809c-0.21875 0-0.41016-0.19141-0.41016-0.41016v-28.41c0-0.21875 0.19141-0.41016 0.41016-0.41016h14.809c0.21875 0 0.41016 0.19141 0.41016 0.41016v28.41c0 0.22266-0.1875 0.41016-0.41016 0.41016zm74.75-15.34-33.098 14.34c-5.3516 2.3203-10.672 2.6602-16.262 1.0312l-21.879-6.3516v-17.559l7.1211-1.6289c4.2188-0.96094 7.9609-0.85156 12.121 0.37109l24.711 7.2617c1.1484 0.33984 1.8594 0.85938 2.25 1.4297 0.03125 0.050782 0.050781 0.089844 0.078124 0.14062 0.32031 0.55078 0.37109 1.1289 0.23828 1.6484-0.33984 1.3516-1.9102 2.5508-4.5312 1.9805l-24.941-5.3984c-0.82813-0.17969-1.6602 0.35156-1.8398 1.1797-0.17969 0.82812 0.35156 1.6602 1.1797 1.8398l24.941 5.3984c0.67969 0.14844 1.3281 0.21875 1.9414 0.21875 3.3594 0 5.6289-2.0586 6.2383-4.4492 0.17969-0.69141 0.21094-1.4414 0.078125-2.1914l18.953-4.6211c2.8984-0.71094 4.9805-0.28906 5.4492 1.0898 0.42969 1.3008-0.57031 3.3203-2.75 4.2695zm-82.148-11.961c-2.3008 0-4.1797 1.8711-4.1797 4.1797s1.8711 4.1797 4.1797 4.1797 4.1797-1.8789 4.1797-4.1797c0-2.2969-1.8789-4.1797-4.1797-4.1797zm0 5.2734c-0.60156 0-1.0898-0.48828-1.0898-1.0898 0-0.60156 0.48828-1.0898 1.0898-1.0898 0.60156 0 1.0898 0.48828 1.0898 1.0898 0 0.59766-0.48828 1.0898-1.0898 1.0898z"/>
<text x="0.0" y="117.5" font-size="5.0" font-weight="bold" font-family="Arbeit Regular, Helvetica, Arial-Unicode, Arial, Sans-serif" fill="#000000">Created by nangicon</text><text x="0.0" y="122.5" font-size="5.0" font-weight="bold" font-family="Arbeit Regular, Helvetica, Arial-Unicode, Arial, Sans-serif" fill="#000000">from Noun Project</text></svg>