<svg xmlns="http://www.w3.org/2000/svg" xmlns:xlink="http://www.w3.org/1999/xlink" version="1.1" x="0px" y="0px" viewBox="0 0 74 92.5" enable-background="new 0 0 74 74" xml:space="preserve"><g><path d="M37.904,29.046c-0.384-1.977-1.933-3.543-3.904-3.945V23c0-1.654-1.346-3-3-3h-1v-6.026   c0.369-0.279,0.695-0.606,0.974-0.974H38c1.654,0,3-1.346,3-3s-1.346-3-3-3h-7.026C30.061,5.793,28.627,5,27,5   s-3.061,0.793-3.974,2H16c-1.654,0-3,1.346-3,3s1.346,3,3,3h7.026c0.279,0.369,0.606,0.695,0.974,0.974V20h-1c-1.654,0-3,1.346-3,3   v2.101C18.044,25.5,16.5,27.044,16.101,29H11v-1c0-1.654-1.346-3-3-3H5v2h3c0.552,0,1,0.448,1,1v16c0,0.552-0.448,1-1,1H5v2h3   c1.654,0,3-1.346,3-3v-1h5.101c0.465,2.279,2.484,4,4.899,4h12c2.382,0,4.374-1.678,4.873-3.912C40.213,43.504,42,45.542,42,48   c0,0.553,0.447,1,1,1h12c0.553,0,1-0.447,1-1C56,37.828,47.959,29.522,37.904,29.046z M11,31h5v10h-5V31z M38,9   c0.552,0,1,0.448,1,1s-0.448,1-1,1h-6.101C31.965,10.677,32,10.342,32,10s-0.035-0.677-0.101-1H38z M27,7c1.654,0,3,1.346,3,3   s-1.346,3-3,3s-3-1.346-3-3S25.346,7,27,7z M16,11c-0.552,0-1-0.448-1-1s0.448-1,1-1h6.101C22.035,9.323,22,9.658,22,10   s0.035,0.677,0.101,1H16z M26,14.899C26.323,14.965,26.658,15,27,15s0.677-0.035,1-0.101V20h-2V14.899z M23,22h8   c0.552,0,1,0.448,1,1v2H22v-2C22,22.448,22.448,22,23,22z M36,42c0,1.654-1.346,3-3,3H21c-1.654,0-3-1.346-3-3V30   c0-1.654,1.346-3,3-3h12c1.654,0,3,1.346,3,3V42z M43.929,47c-0.439-3.06-2.868-5.481-5.929-5.921v-10.03   C46.577,31.551,53.471,38.422,53.971,47H43.929z"/><path d="M49.641,51.231c-0.371-0.309-0.91-0.309-1.281,0C48.101,51.448,42,56.594,42,62c0,3.859,3.141,7,7,7s7-3.141,7-7   C56,56.594,49.899,51.448,49.641,51.231z M49,67c-2.757,0-5-2.243-5-5c0-3.548,3.521-7.253,5-8.652c1.479,1.399,5,5.104,5,8.652   C54,64.757,51.757,67,49,67z"/><rect x="51.757" y="29" transform="matrix(0.7071 -0.7071 0.7071 0.7071 -4.8112 48.3848)" width="8.485" height="2"/><rect x="60.189" y="23.75" transform="matrix(0.7071 -0.7071 0.7071 0.7071 0.4388 50.5594)" width="2.121" height="2"/><rect x="57" y="38" width="8" height="2"/><rect x="67" y="38" width="2" height="2"/><rect x="46" y="21" width="2" height="8"/><rect x="46" y="17" width="2" height="2"/></g><text x="0" y="89" fill="#000000" font-size="5px" font-weight="bold" font-family="'Helvetica Neue', Helvetica, Arial-Unicode, Arial, Sans-serif">Created by Nack_Thanakorn</text><text x="0" y="94" fill="#000000" font-size="5px" font-weight="bold" font-family="'Helvetica Neue', Helvetica, Arial-Unicode, Arial, Sans-serif">from the Noun Project</text></svg>